# xmcd
#
# Track frame offsets: 
#        150
#        17865
#        37157
#        54872
#
# Disc length: 986 seconds
#
# Revision: 2
# Processed by: cddbd v1.5.1PL0 Copyright (c) Steve Scherf et al.
# Submitted via: ExactAudioCopy v0.90b4
#
DISCID=2c03d804
DTITLE=TWO-MIX - NAKED DANCE
DYEAR=2000
DGENRE=JPop
TTITLE0=NAKED DANCE
TTITLE1=DE SHOW !!!
TTITLE2=NAKED DANCE (INSTRUMENTAL)
TTITLE3=DE SHOW !!! (INSTRUMENTAL)
EXTD=YEAR: 2000
EXTT0=
EXTT1=
EXTT2=
EXTT3=
PLAYORDER=
